<?xml version="1.0" encoding="UTF-8" standalone="no"?>
<svg xmlns="http://www.w3.org/2000/svg" width="592" height="592" viewBox="0 0 592 592">
<title>Square containing 50 shades of grey</title>
<g transform="translate(592,592)scale(-37,-37)">
<rect width="16" height="16" fill="rgb(130,130,130)"/>
<rect width="2" height="2" x="1" y="1" fill="rgb(0,0,0)"/>
<rect width="2" height="2" x="3" y="1" fill="rgb(5,5,5)"/>
<rect width="2" height="2" x="5" y="1" fill="rgb(10,10,10)"/>
<rect width="2" height="2" x="7" y="1" fill="rgb(15,15,15)"/>
<rect width="2" height="2" x="9" y="1" fill="rgb(20,20,20)"/>
<rect width="2" height="2" x="11" y="1" fill="rgb(26,26,26)"/>
<rect width="2" height="2" x="13" y="1" fill="rgb(31,31,31)"/>
<rect width="2" height="2" x="1" y="3" fill="rgb(36,36,36)"/>
<rect width="2" height="2" x="3" y="3" fill="rgb(41,41,41)"/>
<rect width="2" height="2" x="5" y="3" fill="rgb(46,46,46)"/>
<rect width="2" height="2" x="7" y="3" fill="rgb(52,52,52)"/>
<rect width="2" height="2" x="9" y="3" fill="rgb(57,57,57)"/>
<rect width="2" height="2" x="11" y="3" fill="rgb(62,62,62)"/>
<rect width="2" height="2" x="13" y="3" fill="rgb(67,67,67)"/>
<rect width="2" height="2" x="1" y="5" fill="rgb(72,72,72)"/>
<rect width="2" height="2" x="3" y="5" fill="rgb(78,78,78)"/>
<rect width="2" height="2" x="5" y="5" fill="rgb(83,83,83)"/>
<rect width="2" height="2" x="7" y="5" fill="rgb(88,88,88)"/>
<rect width="2" height="2" x="9" y="5" fill="rgb(93,93,93)"/>
<rect width="2" height="2" x="11" y="5" fill="rgb(98,98,98)"/>
<rect width="2" height="2" x="13" y="5" fill="rgb(104,104,104)"/>
<rect width="2" height="2" x="1" y="7" fill="rgb(109,109,109)"/>
<rect width="2" height="2" x="3" y="7" fill="rgb(114,114,114)"/>
<rect width="2" height="2" x="5" y="7" fill="rgb(120,120,120)"/>
<rect width="2" height="2" x="7" y="7" fill="rgb(125,125,125)"/>
<rect width="2" height="2" x="9" y="7" fill="rgb(135,135,135)"/>
<rect width="2" height="2" x="11" y="7" fill="rgb(141,141,141)"/>
<rect width="2" height="2" x="13" y="7" fill="rgb(146,146,146)"/>
<rect width="2" height="2" x="1" y="9" fill="rgb(151,151,151)"/>
<rect width="2" height="2" x="3" y="9" fill="rgb(157,157,157)"/>
<rect width="2" height="2" x="5" y="9" fill="rgb(162,162,162)"/>
<rect width="2" height="2" x="7" y="9" fill="rgb(167,167,167)"/>
<rect width="2" height="2" x="9" y="9" fill="rgb(172,172,172)"/>
<rect width="2" height="2" x="11" y="9" fill="rgb(177,177,177)"/>
<rect width="2" height="2" x="13" y="9" fill="rgb(183,183,183)"/>
<rect width="2" height="2" x="1" y="11" fill="rgb(188,188,188)"/>
<rect width="2" height="2" x="3" y="11" fill="rgb(193,193,193)"/>
<rect width="2" height="2" x="5" y="11" fill="rgb(198,198,198)"/>
<rect width="2" height="2" x="7" y="11" fill="rgb(203,203,203)"/>
<rect width="2" height="2" x="9" y="11" fill="rgb(209,209,209)"/>
<rect width="2" height="2" x="11" y="11" fill="rgb(214,214,214)"/>
<rect width="2" height="2" x="13" y="11" fill="rgb(219,219,219)"/>
<rect width="2" height="2" x="1" y="13" fill="rgb(224,224,224)"/>
<rect width="2" height="2" x="3" y="13" fill="rgb(229,229,229)"/>
<rect width="2" height="2" x="5" y="13" fill="rgb(235,235,235)"/>
<rect width="2" height="2" x="7" y="13" fill="rgb(240,240,240)"/>
<rect width="2" height="2" x="9" y="13" fill="rgb(245,245,245)"/>
<rect width="2" height="2" x="11" y="13" fill="rgb(250,250,250)"/>
<rect width="2" height="2" x="13" y="13" fill="rgb(255,255,255)"/>
</g></svg>
